# xmcd CD database file
#
# Track frame offsets:
#	150
#	28718
#	41348
#	67889
#	92596
#	118261
#	136265
#	151815
#	168946
#	188819
#	205558
#	238480
#	265965
#	282294
#	306380
#
# Disc length: 4310 seconds
#
# Revision: 1
# Processed by: cddbd v1.5.2PL0 Copyright (c) Steve Scherf et al.
# Submitted via: CDex 1.70beta2
#
DISCID=ce10d40f
DTITLE=BLACK SABBATH - Blackest Sabbath 1970-1987
DYEAR=1989
DGENRE=Heavy Metal
TTITLE0=Black Sabbath
TTITLE1=Paranoid
TTITLE2=Iron Man
TTITLE3=Snowblind
TTITLE4=Sabbath Bloody Sabbath
TTITLE5=Hole In The Sky
TTITLE6=Rock and Roll Doctor
TTITLE7=Never Say Die
TTITLE8=Lady Evil
TTITLE9=Turn Up The Night
TTITLE10=The Sign Of The Southern Cross  - Heaven and Hell(Contiuned  - Live)
TTITLE11=Children Of The Sea(Live)
TTITLE12=Digital Bitch
TTITLE13=Seventh Star
TTITLE14=Born To Lose
EXTD=YEAR: 1989
EXTT0=
EXTT1=
EXTT2=
EXTT3=
EXTT4=
EXTT5=
EXTT6=
EXTT7=
EXTT8=
EXTT9=
EXTT10=
EXTT11=
EXTT12=
EXTT13=
EXTT14=
PLAYORDER=
